<?xml version="1.0" encoding="UTF-8"?>
<svg id="Layer_1" xmlns="http://www.w3.org/2000/svg" version="1.1" xmlns:xlink="http://www.w3.org/1999/xlink" viewBox="0 0 449.46 98.97">
  <!-- Generator: Adobe Illustrator 30.2.1, SVG Export Plug-In . SVG Version: 2.1.1 Build 1)  -->
  <defs>
    <style>
      .st0 {
        fill: red;
      }
    </style>
    <symbol id="FashionRus" viewBox="0 0 195.14 98.97">
      <g>
        <g>
          <path d="M0,1.55h12.87v6h-6.51v5.12h5.73v5.82h-5.73v11.09H0V1.55Z"/>
          <path d="M25.97,29.58v-2.54h-.08c-.74,1.09-1.46,1.9-2.15,2.41-.69.52-1.51.78-2.45.78-1.83,0-3.3-.94-4.39-2.81-1.09-1.88-1.64-4.42-1.64-7.64s.55-5.56,1.66-7.39c1.11-1.83,2.56-2.75,4.37-2.75.97,0,1.78.24,2.46.72.67.48,1.37,1.26,2.1,2.32h.08v-2.41h6.11v19.32h-6.07ZM25.97,19.82c0-3.21-.78-4.81-2.35-4.81s-2.37,1.6-2.37,4.81.82,5,2.46,5c1.51,0,2.27-1.67,2.27-5Z"/>
          <path d="M37.42,23.35c2.09,1.23,3.59,1.85,4.51,1.85.5,0,.92-.13,1.26-.39.34-.26.5-.57.5-.93,0-.39-.14-.68-.42-.86-.28-.18-1.33-.67-3.15-1.47-1.46-.64-2.51-1.4-3.15-2.28-.64-.88-.97-1.96-.97-3.27,0-1.86.64-3.39,1.92-4.6,1.28-1.2,2.92-1.81,4.9-1.81s4.3.77,7.1,2.31l-2.35,4.35c-1.82-1.12-3.31-1.68-4.47-1.68-1.01,0-1.51.41-1.51,1.22,0,.39.19.73.56,1.02.37.29,1.05.61,2.03.96,1.83.64,3.17,1.41,4,2.31.83.9,1.25,2.03,1.25,3.4,0,1.96-.66,3.57-1.97,4.83-1.32,1.26-3,1.89-5.04,1.89-2.21,0-4.58-.78-7.1-2.33l2.1-4.51Z"/>
          <path d="M53.16,0h6.09v12.77h.1c1.5-2.09,3.23-3.13,5.19-3.13,1.4,0,2.49.46,3.27,1.38.78.92,1.17,2.21,1.17,3.87v14.7h-6.11v-11.78c0-.76-.15-1.35-.45-1.77-.3-.43-.72-.64-1.25-.64-1.27,0-1.91.86-1.91,2.58v11.61h-6.09V0Z"/>
          <path d="M73.47,4.47c0-.9.31-1.66.94-2.29s1.39-.94,2.27-.94,1.66.31,2.29.94.94,1.39.94,2.29-.31,1.64-.94,2.28c-.63.64-1.39.96-2.29.96s-1.62-.32-2.26-.96-.96-1.4-.96-2.28ZM73.63,10.27h6.11v19.32h-6.11V10.27Z"/>
          <path d="M91.82,9.6c2.79,0,4.91.93,6.36,2.78,1.46,1.85,2.18,4.43,2.18,7.74s-.76,5.74-2.27,7.51c-1.51,1.77-3.6,2.66-6.28,2.66s-4.59-.9-6.1-2.71c-1.5-1.81-2.26-4.29-2.26-7.45s.72-5.88,2.15-7.74c1.44-1.85,3.5-2.78,6.2-2.78ZM91.86,24.82c.8,0,1.4-.37,1.8-1.11.4-.74.6-2.01.6-3.8s-.2-3.02-.59-3.74c-.39-.71-.98-1.07-1.76-1.07s-1.36.35-1.76,1.04c-.41.69-.61,1.96-.61,3.81,0,3.25.78,4.87,2.33,4.87Z"/>
          <path d="M110.04,10.27v2.62h.1c1.43-2.17,3.17-3.25,5.23-3.25,1.34,0,2.41.45,3.2,1.34.79.9,1.19,2.11,1.19,3.63v14.97h-6.11v-11.9c0-.66-.15-1.2-.46-1.62-.31-.42-.71-.63-1.2-.63-1.3,0-1.95.82-1.95,2.46v11.69h-6.09V10.27h6.09Z"/>
          <path class="st0" d="M144.69,1.22h-8.32c-3.36,0-6.02.81-7.96,2.43-1.95,1.62-2.92,3.82-2.92,6.6,0,1.43.37,2.81,1.11,4.14.74,1.33,1.81,2.34,3.23,3.01l-5.7,13.29h7.54l5.77-13.42h.12v13.42h7.14V1.22ZM137.55,6.92v7c-3.16-.06-4.74-1.1-4.74-3.11,0-1.37.37-2.35,1.1-2.94.73-.59,1.94-.91,3.64-.95Z"/>
          <path d="M147.25.73h5.17v2.75c0,3.81-1.05,6.66-3.15,8.55l-1.76-1.97c1.08-1.27,1.71-2.66,1.89-4.16h-2.14V.73Z"/>
          <path d="M158.33,1.55h6.53v19.74c0,.92.24,1.66.73,2.19.49.54,1.15.81,1.97.81s1.53-.29,2.03-.86c.5-.57.75-1.36.75-2.37V1.55h6.49v18.39c0,2.51-.33,4.51-.99,6.03-.66,1.51-1.63,2.62-2.91,3.33-1.28.71-3.07,1.06-5.36,1.06-3.39,0-5.77-.87-7.16-2.6-1.39-1.74-2.08-4.67-2.08-8.8V1.55Z"/>
          <path d="M182.62,23.35c2.09,1.23,3.59,1.85,4.51,1.85.5,0,.92-.13,1.26-.39.34-.26.5-.57.5-.93,0-.39-.14-.68-.42-.86-.28-.18-1.33-.67-3.15-1.47-1.46-.64-2.51-1.4-3.15-2.28-.64-.88-.97-1.96-.97-3.27,0-1.86.64-3.39,1.92-4.6,1.28-1.2,2.92-1.81,4.9-1.81s4.3.77,7.1,2.31l-2.35,4.35c-1.82-1.12-3.31-1.68-4.47-1.68-1.01,0-1.51.41-1.51,1.22,0,.39.19.73.56,1.02.37.29,1.05.61,2.03.96,1.83.64,3.17,1.41,4,2.31.83.9,1.25,2.03,1.25,3.4,0,1.96-.66,3.57-1.97,4.83-1.32,1.26-3,1.89-5.04,1.89-2.21,0-4.58-.78-7.1-2.33l2.1-4.51Z"/>
        </g>
        <text/>
      </g>
    </symbol>
  </defs>
  <text/>
  <use width="195.14" height="98.97" transform="translate(118.94 21.36)" xlink:href="#FashionRus"/>
</svg>